<?xml version="1.0" standalone="no"?>
<!DOCTYPE svg PUBLIC "-//W3C//DTD SVG 20010904//EN"
 "http://www.w3.org/TR/2001/REC-SVG-20010904/DTD/svg10.dtd">
<svg version="1.0" xmlns="http://www.w3.org/2000/svg"
 width="611.000000pt" height="611.000000pt" viewBox="0 0 611.000000 611.000000"
 preserveAspectRatio="xMidYMid meet">
<metadata>
Created by potrace 1.14, written by Peter Selinger 2001-2017
</metadata>
<g transform="translate(0.000000,611.000000) scale(0.100000,-0.100000)"
fill="#000000" stroke="none">
<path d="M1186 4534 c-263 -40 -511 -168 -681 -353 -22 -24 -45 -49 -51 -55
-32 -33 -107 -145 -142 -213 -49 -95 -97 -241 -116 -348 -14 -80 -15 -319 -1
-380 27 -126 39 -170 67 -240 62 -158 140 -277 263 -400 150 -151 338 -259
537 -309 120 -30 179 -37 308 -36 564 4 1039 409 1143 973 19 99 19 300 1 397
-81 437 -380 783 -794 918 -163 53 -367 71 -534 46z"/>
<path d="M3248 4520 c-93 -221 -152 -360 -163 -385 -7 -16 -57 -133 -110 -260
-53 -126 -103 -243 -110 -260 -19 -41 -458 -1078 -502 -1185 -19 -47 -45 -107
-58 -135 -12 -27 -25 -60 -29 -72 l-7 -21 991 0 c544 0 990 4 990 8 0 9 -279
676 -345 825 -8 17 -64 149 -125 295 -61 146 -117 279 -125 295 -16 35 -373
881 -385 910 -7 18 -9 16 -22 -15z"/>
<path d="M4305 3370 l0 -1170 35 -1 c19 0 272 0 562 0 l527 0 91 45 c120 60
172 97 257 183 98 99 159 212 184 337 10 55 13 167 5 206 -3 14 -8 34 -10 45
-39 188 -230 400 -446 495 -30 13 -58 27 -63 30 -4 3 5 22 19 41 45 58 93 174
107 254 39 232 -73 467 -298 627 -116 83 -84 78 -552 78 l-418 0 0 -1170z"/>
<path d="M3857 2015 c-20 -19 -21 -27 -6 -42 9 -9 16 -9 30 0 14 9 21 9 31 -1
16 -16 66 -15 84 2 17 18 18 36 2 37 -7 1 -26 3 -43 4 -16 2 -42 6 -56 10 -18
5 -31 2 -42 -10z"/>
<path d="M4190 1920 c-81 -23 -104 -74 -98 -222 4 -113 17 -145 66 -168 70
-33 147 -15 182 42 17 28 20 50 20 141 0 123 -13 168 -57 190 -36 19 -81 26
-113 17z m78 -88 c18 -23 17 -216 -2 -231 -24 -20 -62 -22 -76 -5 -16 18 -21
198 -7 231 15 35 58 37 85 5z"/>
<path d="M1809 1878 c-1 -80 -1 -313 0 -338 1 -24 4 -25 41 -22 l40 4 0 127 0
126 26 -46 c14 -25 32 -46 40 -46 8 0 25 20 39 44 14 24 27 43 28 43 1 0 2
-56 2 -125 l-1 -125 41 0 40 0 0 198 0 197 -41 3 c-39 3 -41 2 -64 -48 -37
-79 -44 -80 -81 -11 -30 58 -33 61 -70 61 l-39 0 -1 -42z"/>
<path d="M2239 1878 c-70 -257 -94 -358 -86 -361 5 -1 24 -1 43 1 27 3 34 9
39 32 7 32 19 37 81 32 38 -4 43 -7 46 -30 3 -24 8 -27 46 -30 23 -2 42 0 42
5 0 8 -5 27 -34 133 -62 228 -63 234 -65 253 -1 4 -23 7 -51 7 l-49 0 -12 -42z
m82 -151 c10 -40 16 -74 13 -76 -9 -9 -74 -6 -74 3 0 6 9 41 19 78 10 37 17
70 15 73 -2 3 -1 2 3 -1 4 -3 15 -38 24 -77z"/>
<path d="M2491 1719 l1 -200 41 3 42 3 0 80 c0 73 2 80 20 80 15 0 26 -17 49
-80 16 -44 34 -83 39 -86 8 -6 67 -3 73 3 1 2 -13 40 -31 84 l-33 82 30 29
c35 36 42 86 18 140 -23 51 -53 63 -160 63 l-89 0 0 -201z m168 117 c35 -42 1
-97 -56 -89 -26 4 -28 7 -28 54 l0 49 36 0 c20 0 42 -6 48 -14z"/>
<path d="M2846 1738 c-27 -101 -51 -190 -53 -199 -3 -11 3 -18 20 -21 38 -7
67 8 67 36 0 20 5 24 38 27 65 7 82 0 89 -32 5 -27 9 -29 49 -29 l43 0 -19 68
c-41 147 -62 229 -70 262 -14 66 -18 70 -69 70 l-47 0 -48 -182z m134 -78 c0
-11 -11 -15 -40 -15 -31 0 -39 3 -35 15 2 8 12 47 21 85 l18 70 18 -70 c9 -38
18 -77 18 -85z"/>
<path d="M3139 1913 c-1 -5 -2 -93 -3 -198 -1 -183 -1 -190 19 -196 11 -3 29
-3 41 -1 19 3 20 10 19 113 -1 60 1 109 5 109 3 0 29 -49 58 -110 43 -91 55
-110 74 -111 27 -2 51 1 57 7 3 3 4 264 2 367 -1 25 -4 27 -40 27 l-39 0 0
-67 c-1 -38 -1 -90 -2 -118 l-1 -50 -56 118 -56 117 -39 0 c-21 0 -39 -3 -39
-7z"/>
<path d="M3469 1888 c0 -59 -1 -302 0 -334 1 -25 6 -33 24 -36 51 -9 56 -2 59
85 l3 81 35 1 c59 2 61 -1 59 -79 -1 -95 -2 -93 24 -90 12 1 29 3 38 3 15 1
17 23 17 201 l0 200 -39 0 c-44 0 -43 2 -40 -102 1 -32 -1 -59 -6 -59 -4 -1
-27 -2 -50 -3 l-43 -2 0 83 0 83 -40 0 c-38 0 -40 -1 -41 -32z"/>
<path d="M3866 1903 c-12 -41 -68 -250 -72 -268 -2 -11 -10 -41 -18 -67 -15
-52 -10 -58 46 -50 20 3 28 11 33 32 6 26 11 28 56 32 54 3 64 -2 74 -42 5
-23 10 -25 46 -22 47 5 47 -12 0 162 -18 63 -33 120 -35 125 -1 6 -8 34 -16
63 l-14 52 -47 0 c-37 0 -49 -4 -53 -17z m73 -172 c7 -34 15 -69 17 -75 5 -13
-59 -17 -71 -4 -3 3 1 34 11 69 9 35 17 70 17 77 1 29 15 -7 26 -67z"/>
</g>
</svg>
